<svg width="92" height="84" viewBox="0 0 92 84" fill="none" xmlns="http://www.w3.org/2000/svg">
<path d="M48.8384 28.7193L44.698 37.8941L39.8165 41.7685V36.1825L45.8107 23.2945L36.7132 7L25.0765 29.883L30.9605 29.9485L36.7132 19.0633L39.1778 23.1456L32.7864 36.1825H21.8719L19 41.8307H39.7375H39.8165H56.16L48.8384 28.7193Z" fill="#F9E10A"/>
<path d="M40.2794 38.5588V40.8072L42.0319 39.4302C42.0319 39.4302 40.8091 39.5113 40.2794 38.5588Z" fill="#3A382E"/>
<path d="M47.1404 25.5774L42.2077 36.1281C42.1387 36.2752 42.0141 36.389 41.8613 36.4446C41.7084 36.5002 41.5397 36.4931 41.3921 36.4248L41.1985 36.3359C41.1256 36.3024 41.0599 36.2549 41.0055 36.1959C40.951 36.137 40.9087 36.0679 40.8811 35.9926C40.8535 35.9173 40.8411 35.8372 40.8446 35.7571C40.8481 35.677 40.8674 35.5983 40.9014 35.5257L46.2769 24.0281L47.1404 25.5774Z" fill="#F9E10A"/>
<path d="M48.4267 27.8859L44.0682 37.2073C43.9992 37.3544 43.8745 37.4682 43.7216 37.5236C43.5687 37.579 43.4 37.5716 43.2526 37.503L43.0601 37.4141C42.9871 37.3806 42.9215 37.333 42.867 37.2741C42.8125 37.2152 42.7702 37.1461 42.7425 37.0708C42.7148 36.9955 42.7022 36.9155 42.7055 36.8354C42.7089 36.7553 42.728 36.6766 42.7619 36.6038L47.5621 26.3354L48.4267 27.8859Z" fill="#F9E10A"/>
<path d="M2.3322 53.7953L1.31187 56.8409H0L3.33815 47.1577H4.86776L8.2203 56.8409H6.86525L5.81432 53.7953H2.3322ZM5.55339 52.8179L4.59063 50.0313C4.37289 49.398 4.23072 48.8233 4.08136 48.2575H4.05077C3.905 48.8322 3.74485 49.4211 3.55589 50.01L2.59494 52.8126L5.55339 52.8179Z" fill="white"/>
<path d="M10.7432 47.1577H12.0029V55.7908H16.2012V56.8409H10.7432V47.1577Z" fill="white"/>
<path d="M25.6626 56.4128C24.6946 56.7555 23.675 56.9354 22.6465 56.9449C21.1583 56.9449 19.9346 56.5724 18.9737 55.666C18.1279 54.8624 17.6024 53.5693 17.6024 52.0616C17.6168 49.1738 19.6287 47.0612 22.9219 47.0612C23.7607 47.0417 24.5945 47.1933 25.371 47.5065L25.0651 48.5264C24.3807 48.2326 23.6393 48.0903 22.8931 48.1096C20.5033 48.1096 18.9431 49.5747 18.9431 52.0031C18.9431 54.4598 20.4457 55.9054 22.7329 55.9054C23.5643 55.9054 24.1329 55.7901 24.4245 55.6465V52.7623H22.427V51.7565H25.6662L25.6626 56.4128Z" fill="white"/>
<path d="M39.7962 47.2903C40.5997 47.1489 41.4148 47.0812 42.231 47.0881C43.586 47.0881 44.4606 47.3329 45.0725 47.8793C45.3269 48.1135 45.5275 48.3986 45.661 48.7156C45.7945 49.0325 45.8576 49.3739 45.8463 49.7169C45.8463 50.9958 45.0293 51.8455 43.9945 52.1878V52.2322C44.7521 52.4911 45.2038 53.1794 45.4342 54.1833C45.7545 55.535 45.9884 56.468 46.1918 56.8441H44.8889C44.7287 56.5709 44.511 55.7372 44.2339 54.5381C43.9423 53.2007 43.4169 52.6987 42.2652 52.6561H41.0703V56.8511H39.7962V47.2903ZM41.0649 51.7H42.3624C43.7174 51.7 44.5776 50.9674 44.5776 49.8606C44.5776 48.6189 43.6598 48.0655 42.3192 48.0513C41.8961 48.0385 41.473 48.0773 41.0595 48.1666L41.0649 51.7Z" fill="white"/>
<path d="M37.022 51.8993C37.022 55.2322 34.9669 56.9989 32.4601 56.9989C29.867 56.9989 28.0441 55.0158 28.0441 52.0855C28.0441 49.0097 29.9822 47 32.6059 47C35.289 47 37.022 49.0239 37.022 51.8993ZM29.3991 52.0571C29.3991 54.1254 30.5364 55.979 32.5339 55.979C34.5314 55.979 35.6813 54.1538 35.6813 51.956C35.6813 50.0314 34.661 48.0199 32.5483 48.0199C30.4357 48.0199 29.3991 49.9303 29.3991 52.0571Z" fill="white"/>
<path d="M51.4974 47.1577V56.8409H50.2288V47.1577H51.4974Z" fill="white"/>
<path d="M58.2169 48.2203H55.2297V47.156H62.5016V48.2203H59.5V56.841H58.2169V48.2203Z" fill="white"/>
<path d="M74.5117 52.5873C74.4398 51.2375 74.3516 49.6144 74.366 48.4065H74.3228C73.9881 49.5417 73.5796 50.7479 73.0847 52.0853L71.3499 56.7824H70.3872L68.7982 52.1705C68.3321 50.8064 67.9398 49.5559 67.6627 48.4065H67.6357C67.6051 49.6144 67.5331 51.2446 67.4449 52.6884L67.1822 56.8409H65.9729L66.6585 47.1577H68.2781L69.9535 51.8406C70.362 53.0326 70.6967 54.0968 70.945 55.1026H70.9882C71.2366 54.1252 71.5857 53.0609 72.023 51.8406L73.7721 47.1577H75.3917L76.0054 56.8409H74.7655L74.5117 52.5873Z" fill="white"/>
</svg>
